<svg width="24" height="25" viewBox="0 0 24 25" fill="none" xmlns="http://www.w3.org/2000/svg">
<g clip-path="url(#clip0_1_68)">
<path d="M5.96545 18.5915H0.28125V24.2757H5.96545V18.5915Z" fill="white"/>
<path d="M5.96545 9.65988H0.28125V15.3441H5.96545V9.65988Z" fill="white"/>
<path d="M5.96545 0.726471H0.28125V6.41067H5.96545V0.726471Z" fill="white"/>
<path d="M14.8989 18.5915H9.21466V24.2757H14.8989V18.5915Z" fill="white"/>
<path d="M14.8989 9.65988H9.21466V15.3441H14.8989V9.65988Z" fill="white"/>
<path d="M14.8989 0.726471H9.21466V6.41067H14.8989V0.726471Z" fill="white"/>
<path d="M23.8305 18.5915H18.1463V24.2757H23.8305V18.5915Z" fill="white"/>
<path d="M23.8305 9.65988H18.1463V15.3441H23.8305V9.65988Z" fill="white"/>
<path d="M23.8305 0.726471H18.1463V6.41067H23.8305V0.726471Z" fill="white"/>
</g>
<defs>
<clipPath id="clip0_1_68">
<rect width="23.5488" height="23.5488" fill="white" transform="translate(0.28125 0.726471)"/>
</clipPath>
</defs>
</svg>
