<svg width="84" height="17" viewBox="0 0 84 17" fill="none" xmlns="http://www.w3.org/2000/svg">
<path fill-rule="evenodd" clip-rule="evenodd" d="M71.2162 11.5817L71.2156 5.98907L76.6194 8.79504L71.2162 11.5817ZM83.0812 5.01995C83.0812 5.01995 82.8856 3.64838 82.2862 3.04439C81.5256 2.2513 80.6731 2.24757 80.2825 2.20154C77.4837 2 73.2856 2 73.2856 2H73.2769C73.2769 2 69.0787 2 66.28 2.20154C65.8888 2.24757 65.0369 2.2513 64.2756 3.04439C63.6762 3.64838 63.4813 5.01995 63.4813 5.01995C63.4813 5.01995 63.2812 6.631 63.2812 8.24144V9.75172C63.2812 11.3628 63.4813 12.9732 63.4813 12.9732C63.4813 12.9732 63.6762 14.3448 64.2756 14.9488C65.0369 15.7419 66.0363 15.717 66.4813 15.7997C68.0813 15.9527 73.2812 16 73.2812 16C73.2812 16 77.4837 15.9938 80.2825 15.7922C80.6731 15.7456 81.5256 15.7419 82.2862 14.9488C82.8856 14.3448 83.0812 12.9732 83.0812 12.9732C83.0812 12.9732 83.2812 11.3628 83.2812 9.75172V8.24144C83.2812 6.631 83.0812 5.01995 83.0812 5.01995Z" fill="white"/>
<path fill-rule="evenodd" clip-rule="evenodd" d="M40.6003 17H37.0536V8.5H35.2812V5.57H37.0536V3.81161C37.0536 1.42295 38.0548 0 40.8967 0H43.2637V2.93H41.7848C40.6783 2.93 40.6042 3.33987 40.6042 4.10355L40.6003 5.57H43.2812L42.9673 8.5H40.6003V17Z" fill="white"/>
<path fill-rule="evenodd" clip-rule="evenodd" d="M15.5414 5.48683C15.5476 5.63859 15.5511 5.79124 15.5511 5.94478C15.5511 10.6153 12.0433 16 5.62844 16C3.6587 16 1.8255 15.4153 0.28125 14.4128C0.554335 14.4449 0.831825 14.4619 1.11372 14.4619C2.74783 14.4619 4.25156 13.8968 5.4452 12.9488C3.91857 12.9202 2.63066 11.8981 2.18756 10.4939C2.39986 10.5359 2.61833 10.5582 2.84297 10.5582C3.16098 10.5582 3.4693 10.5144 3.76177 10.4341C2.16642 10.1092 0.964844 8.68086 0.964844 6.96869C0.964844 6.95352 0.964844 6.93834 0.964844 6.92406C1.43526 7.18829 1.97262 7.34719 2.54433 7.36594C1.6088 6.73213 0.993034 5.65019 0.993034 4.42454C0.993034 3.77645 1.16481 3.16942 1.46521 2.6472C3.18564 4.78518 5.75529 6.19295 8.65352 6.34024C8.59449 6.08136 8.56366 5.81177 8.56366 5.53415C8.56366 3.58273 10.1247 2 12.0512 2C13.0546 2 13.9611 2.42938 14.5971 3.11675C15.3917 2.95785 16.1378 2.66416 16.8117 2.25888C16.5518 3.08372 15.9986 3.77645 15.278 4.21386C15.9837 4.12906 16.6558 3.93891 17.2812 3.65772C16.8135 4.36651 16.2224 4.98871 15.5414 5.48683Z" fill="white"/>
</svg>
