<svg width="18" height="14" viewBox="0 0 18 14" fill="none" xmlns="http://www.w3.org/2000/svg">
<path fill-rule="evenodd" clip-rule="evenodd" d="M15.5414 3.48683C15.5476 3.63859 15.5511 3.79124 15.5511 3.94478C15.5511 8.61532 12.0433 14 5.62844 14C3.6587 14 1.8255 13.4153 0.28125 12.4128C0.554335 12.4449 0.831825 12.4619 1.11372 12.4619C2.74783 12.4619 4.25156 11.8968 5.4452 10.9488C3.91857 10.9202 2.63066 9.89811 2.18756 8.49391C2.39986 8.53587 2.61833 8.55818 2.84297 8.55818C3.16098 8.55818 3.4693 8.51444 3.76177 8.4341C2.16642 8.10916 0.964844 6.68086 0.964844 4.96869C0.964844 4.95352 0.964844 4.93834 0.964844 4.92406C1.43526 5.18829 1.97262 5.34719 2.54433 5.36594C1.6088 4.73213 0.993034 3.65019 0.993034 2.42454C0.993034 1.77645 1.16481 1.16942 1.46521 0.647198C3.18564 2.78518 5.75529 4.19295 8.65352 4.34024C8.59449 4.08136 8.56366 3.81177 8.56366 3.53415C8.56366 1.58273 10.1247 0 12.0512 0C13.0546 0 13.9611 0.429382 14.5971 1.11675C15.3917 0.957852 16.1378 0.664159 16.8117 0.258879C16.5518 1.08372 15.9986 1.77645 15.278 2.21386C15.9837 2.12906 16.6558 1.93891 17.2812 1.65772C16.8135 2.36651 16.2224 2.98871 15.5414 3.48683Z" fill="white"/>
</svg>
