<svg width="21" height="14" viewBox="0 0 21 14" fill="none" xmlns="http://www.w3.org/2000/svg">
<path fill-rule="evenodd" clip-rule="evenodd" d="M8.21625 9.58173L8.21562 3.98907L13.6194 6.79504L8.21625 9.58173ZM20.0812 3.01995C20.0812 3.01995 19.8856 1.64838 19.2862 1.04439C18.5256 0.2513 17.6731 0.247567 17.2825 0.201537C14.4837 0 10.2856 0 10.2856 0H10.2769C10.2769 0 6.07875 0 3.28 0.201537C2.88875 0.247567 2.03688 0.2513 1.27562 1.04439C0.67625 1.64838 0.48125 3.01995 0.48125 3.01995C0.48125 3.01995 0.28125 4.631 0.28125 6.24144V7.75172C0.28125 9.36278 0.48125 10.9732 0.48125 10.9732C0.48125 10.9732 0.67625 12.3448 1.27562 12.9488C2.03688 13.7419 3.03625 13.717 3.48125 13.7997C5.08125 13.9527 10.2812 14 10.2812 14C10.2812 14 14.4837 13.9938 17.2825 13.7922C17.6731 13.7456 18.5256 13.7419 19.2862 12.9488C19.8856 12.3448 20.0812 10.9732 20.0812 10.9732C20.0812 10.9732 20.2812 9.36278 20.2812 7.75172V6.24144C20.2812 4.631 20.0812 3.01995 20.0812 3.01995Z" fill="white"/>
</svg>
